<svg version="1.2" xmlns="http://www.w3.org/2000/svg" viewBox="0 0 486 305" width="486" height="305">
	<title>TransparentMirrow</title>
	<style>
		.s0 { fill: #ffffff } 
	</style>
	<g id="Layer 1">
		<path id="&lt;Path&gt;" class="s0" d="m285.4 151.7c0 75.6-61.2 136.8-136.7 136.8-75.6 0-136.8-61.2-136.8-136.8 0-75.5 61.2-136.7 136.8-136.7 75.5 0 136.7 61.2 136.7 136.7z"/>
		<path id="&lt;Path&gt;" class="s0" d="m475.1 151.7c0-76.5-62.3-138.7-138.8-138.7-22.5 0-44.2 5.3-63.8 15.6 12.8 12.8 23.6 27.6 31.8 43.7 12.5 24.4 19.1 51.9 19.1 79.4 0 27.6-6.6 55.1-19.1 79.5-8.2 16.1-19 30.9-31.8 43.7 19.6 10.3 41.3 15.6 63.8 15.6 76.5 0 138.8-62.3 138.8-138.8z"/>
	</g>
</svg>