<?xml version="1.0" encoding="UTF-8"?>
<svg id="Layer_1" data-name="Layer 1" xmlns="http://www.w3.org/2000/svg" viewBox="0 0 185.62 196.1">
  <path d="M0,196.1V7.1h50.25v18.12c3.68-4.22,9.55-10.02,18-15C87.41-1.09,106.22-.21,113.25.21c7.41.45,23.08,1.59,39,12.32,15.01,10.11,22.13,22.99,24.75,28.69,5.75,12.5,8.62,27.88,8.62,46.12v108.75h-52.12v-103.88c0-14.5-3.19-25.69-9.56-33.56s-16.07-11.81-29.06-11.81c-8,0-15.25,1.94-21.75,5.81-6.5,3.88-11.57,9.38-15.19,16.5-3.63,7.12-5.44,15.81-5.44,26.06v100.88H0Z" fill="#fff"/>
</svg>