<?xml version="1.0" encoding="UTF-8"?>
<svg id="a" data-name="Layer 1" xmlns="http://www.w3.org/2000/svg" viewBox="0 0 450 450">
  <path d="M342.63,0H107.37C48.07,0,0,48.07,0,107.37v235.26c0,59.3,48.07,107.37,107.37,107.37h235.26c59.3,0,107.37-48.07,107.37-107.37V107.37c0-59.3-48.07-107.37-107.37-107.37ZM196.57,288.61c-11.84,22.25-30.03,45.75-55.62,71.85-6.56,6.69-15.24,10.05-23.93,10.05s-16.93-3.19-23.45-9.58c-13.21-12.95-13.42-34.16-.47-47.37,38.33-39.1,55.89-69.56,53.69-93.1-2.34-25.11-27.51-53.61-79.21-89.7-15.17-10.59-18.88-31.47-8.29-46.65,10.59-15.17,31.47-18.88,46.65-8.29,32.67,22.81,56.77,43.71,73.68,63.89,20.4,24.36,31.49,48.74,33.89,74.53,2.27,24.35-3.27,48.68-16.94,74.37ZM382.92,130.58c-51.7,36.09-76.87,64.6-79.21,89.7-2.2,23.55,15.37,54,53.69,93.1,12.95,13.21,12.74,34.42-.47,47.37-6.52,6.39-14.99,9.58-23.45,9.58s-17.37-3.36-23.93-10.05c-25.59-26.1-43.78-49.61-55.62-71.86-13.67-25.69-19.21-50.02-16.94-74.37,2.41-25.79,13.49-50.17,33.89-74.53,16.9-20.18,41-41.08,73.68-63.89,15.17-10.59,36.05-6.88,46.65,8.29,10.59,15.17,6.88,36.05-8.29,46.65Z" fill="#60bdc5" stroke-width="0"/>
</svg>