<svg version="1.2" xmlns="http://www.w3.org/2000/svg" viewBox="0 0 600 535" width="600" height="535">
	<title>Bluesky-svg</title>
	<style>
		.s0 { fill: #ffffff } 
	</style>
	<path id="Layer" class="s0" d="m299.8 238.5c-26.4-51-97.8-146.3-164.3-193.2-63.6-44.9-88-37.2-103.8-29.9-18.4 8.4-21.7 36.7-21.7 53.3 0 16.6 9.1 136.5 15.1 156.5 19.8 66.1 89.7 88.5 154.2 81.2 3.3-0.5 6.6-1 10-1.3-3.2 0.5-6.7 1-10 1.3-94.4 14-178.5 48.4-68.3 171 121.1 125.4 166-26.8 189.1-104.2 23 77.2 49.5 224 186.7 104.2 103.2-104.2 28.3-157-66.1-171-3.3-0.3-6.8-0.8-10-1.3 3.4 0.5 6.7 0.8 10 1.3 64.5 7.3 134.6-15.1 154.2-81.2 5.9-20.1 15.1-139.9 15.1-156.5 0-16.6-3.3-44.9-21.7-53.3-16-7.3-40.2-15-103.8 29.9-67 47.1-138.4 142.2-164.8 193.2z"/>
</svg>